<svg height="340pt" viewBox="-45 1 340 340.646" width="340pt" xmlns="http://www.w3.org/2000/svg"><path style="fill: #AB7C94;" d="m176.550781 198.917969h-17.046875c-3.140625 0-5.683594-2.546875-5.683594-5.683594h73.882813c3.140625.011719 5.691406-2.527344 5.703125-5.664063.003906-.878906-.199219-1.75-.585938-2.539062l-2.898437-5.863281c-8.90625-18.03125-13.554687-37.867188-13.585937-57.976563v-30.257812c0-50.222656-40.710938-90.933594-90.933594-90.933594s-90.933594 40.710938-90.933594 90.933594v30.257812c-.023438 20.105469-4.664062 39.9375-13.558594 57.96875l-2.898437 5.867188c-1.394531 2.8125-.246094 6.222656 2.566406 7.617187.785156.386719 1.648437.589844 2.523437.589844h73.886719c0 3.136719-2.546875 5.683594-5.683593 5.683594h-17.050782c-40.785156.046875-73.835937 33.097656-73.882812 73.882812v62.515625c0 3.140625 2.542968 5.683594 5.683594 5.683594h238.699218c3.136719 0 5.683594-2.542969 5.683594-5.683594v-62.515625c-.046875-40.785156-33.101562-73.835937-73.886719-73.882812zm-96.613281-79.566407v-22.734374h17.046875c18.070313.097656 34.820313-9.453126 43.9375-25.054688 7.550781 8.660156 18.460937 13.644531 29.945313 13.6875v34.101562c0 25.109376-20.355469 45.464844-45.464844 45.464844s-45.464844-20.355468-45.464844-45.464844zm-13.714844-3.339843c-4.425781-4.390625-4.453125-11.542969-.0625-15.96875.71875-.722657 1.527344-1.34375 2.410156-1.847657v19.574219c-.855468-.480469-1.644531-1.070312-2.347656-1.757812zm116.011719-17.816407c5.414063 3.097657 7.292969 9.996094 4.195313 15.410157-.503907.882812-1.125 1.691406-1.847657 2.410156-.699219.683594-1.488281 1.273437-2.347656 1.75zm-150.003906 83.671876c8.933593-18.980469 13.578125-39.695313 13.605469-60.675782v-30.257812c0-43.945313 35.621093-79.566406 79.566406-79.566406 43.941406 0 79.566406 35.621093 79.566406 79.566406v30.257812c.023438 20.980469 4.667969 41.695313 13.605469 60.675782h-64.753907v-13.375c14.199219-8.21875 24.164063-22.160157 27.339844-38.257813 12.265625-2.507813 20.179688-14.484375 17.671875-26.75-1.738281-8.507813-8.183593-15.277344-16.597656-17.425781v-6.492188c0-3.136718-2.542969-5.683594-5.683594-5.683594h-5.679687c-10.800782-.019531-20.660156-6.148437-25.464844-15.820312 0 0-.074219 0-.09375 0-.566406-1.59375-1.820312-2.84375-3.410156-3.410156-2.972656-1.007813-6.199219.585937-7.207032 3.558594-5.4375 16.191406-20.628906 27.085937-37.710937 27.039062h-22.734375c-12.554688.03125-22.707031 10.230469-22.679688 22.789062.023438 10.738282 7.5625 19.992188 18.070313 22.195313 3.179687 16.097656 13.144531 30.042969 27.34375 38.261719v13.371094zm76.121093 11.367187v-19.671875c11.097657 3.496094 23.003907 3.496094 34.101563 0v19.671875c0 9.414063 7.632813 17.050781 17.050781 17.050781h5.226563c-3.117188 21.71875-23.253907 36.796875-44.976563 33.679688-17.457031-2.507813-31.171875-16.222656-33.679687-33.679688h5.226562c9.417969 0 17.050781-7.636718 17.050781-17.050781zm56.804688 43.488281-16.117188 92.910156h-47.273437l-16.117187-92.910156c17.679687 21.953125 49.8125 25.421875 71.765624 7.742188 2.851563-2.296875 5.445313-4.890625 7.742188-7.742188zm-153.421875 36.078125c.050781-32.679687 25.242187-59.8125 57.828125-62.277343l20.671875 119.109374h-33.03125v-51.148437c0-3.140625-2.546875-5.683594-5.683594-5.683594s-5.683593 2.546875-5.683593 5.683594v51.148437h-34.101563zm227.335937 56.832031h-34.101562v-51.148437c0-3.140625-2.542969-5.683594-5.683594-5.683594-3.136718 0-5.683594 2.542969-5.683594 5.683594v51.148437h-33.03125l20.671876-119.109374c32.582031 2.464843 57.777343 29.597656 57.828124 62.277343zm0 0"/></svg>
